<mxfile host="app.diagrams.net" modified="2023-02-01T01:14:15.446Z" agent="5.0 (Macintosh; Intel Mac OS X 10_15_7) AppleWebKit/537.36 (KHTML, like Gecko) Chrome/109.0.0.0 Safari/537.36" version="20.8.5" etag="Fn6jQKVk1C43-aElpkPq" type="github">
  <diagram id="mf3itevj9tBm1pYgbYbN" name="第 1 页">
    <mxGraphModel dx="1223" dy="584" grid="1" gridSize="10" guides="1" tooltips="1" connect="1" arrows="1" fold="1" page="1" pageScale="1" pageWidth="827" pageHeight="1169" math="0" shadow="0">
      <root>
        <mxCell id="0" />
        <mxCell id="1" parent="0" />
        <mxCell id="ivQ7KvZgWlKlHBZSh0n3-1" value="mall" style="shape=umlLifeline;perimeter=lifelinePerimeter;whiteSpace=wrap;html=1;container=1;collapsible=0;recursiveResize=0;outlineConnect=0;" vertex="1" parent="1">
          <mxGeometry x="220" y="120" width="100" height="300" as="geometry" />
        </mxCell>
        <mxCell id="ivQ7KvZgWlKlHBZSh0n3-5" value="" style="html=1;points=[];perimeter=orthogonalPerimeter;" vertex="1" parent="ivQ7KvZgWlKlHBZSh0n3-1">
          <mxGeometry x="45" y="90" width="10" height="160" as="geometry" />
        </mxCell>
        <mxCell id="ivQ7KvZgWlKlHBZSh0n3-3" value="发起退款申请：userApplyRefund" style="edgeStyle=orthogonalEdgeStyle;rounded=0;orthogonalLoop=1;jettySize=auto;html=1;entryX=0.466;entryY=0.298;entryDx=0;entryDy=0;entryPerimeter=0;" edge="1" parent="1" source="ivQ7KvZgWlKlHBZSh0n3-2" target="ivQ7KvZgWlKlHBZSh0n3-1">
          <mxGeometry relative="1" as="geometry" />
        </mxCell>
        <mxCell id="ivQ7KvZgWlKlHBZSh0n3-2" value="Actor" style="shape=umlActor;verticalLabelPosition=bottom;verticalAlign=top;html=1;" vertex="1" parent="1">
          <mxGeometry x="20" y="180" width="30" height="60" as="geometry" />
        </mxCell>
        <mxCell id="ivQ7KvZgWlKlHBZSh0n3-4" value="Order" style="shape=umlLifeline;perimeter=lifelinePerimeter;whiteSpace=wrap;html=1;container=1;collapsible=0;recursiveResize=0;outlineConnect=0;" vertex="1" parent="1">
          <mxGeometry x="460" y="120" width="100" height="300" as="geometry" />
        </mxCell>
        <mxCell id="ivQ7KvZgWlKlHBZSh0n3-7" value="" style="html=1;points=[];perimeter=orthogonalPerimeter;" vertex="1" parent="ivQ7KvZgWlKlHBZSh0n3-4">
          <mxGeometry x="45" y="100" width="10" height="80" as="geometry" />
        </mxCell>
        <mxCell id="ivQ7KvZgWlKlHBZSh0n3-6" style="edgeStyle=orthogonalEdgeStyle;rounded=0;orthogonalLoop=1;jettySize=auto;html=1;entryX=0.474;entryY=0.356;entryDx=0;entryDy=0;entryPerimeter=0;" edge="1" parent="1" source="ivQ7KvZgWlKlHBZSh0n3-5" target="ivQ7KvZgWlKlHBZSh0n3-4">
          <mxGeometry relative="1" as="geometry">
            <Array as="points">
              <mxPoint x="330" y="227" />
              <mxPoint x="330" y="227" />
            </Array>
          </mxGeometry>
        </mxCell>
        <mxCell id="ivQ7KvZgWlKlHBZSh0n3-8" value="申请退款：applyRefund" style="edgeLabel;html=1;align=center;verticalAlign=middle;resizable=0;points=[];" vertex="1" connectable="0" parent="ivQ7KvZgWlKlHBZSh0n3-6">
          <mxGeometry x="-0.3542" y="1" relative="1" as="geometry">
            <mxPoint x="30" as="offset" />
          </mxGeometry>
        </mxCell>
        <mxCell id="ivQ7KvZgWlKlHBZSh0n3-9" value="OrderDeal" style="shape=umlLifeline;perimeter=lifelinePerimeter;whiteSpace=wrap;html=1;container=1;collapsible=0;recursiveResize=0;outlineConnect=0;" vertex="1" parent="1">
          <mxGeometry x="690" y="110" width="100" height="300" as="geometry" />
        </mxCell>
        <mxCell id="ivQ7KvZgWlKlHBZSh0n3-10" value="" style="html=1;points=[];perimeter=orthogonalPerimeter;" vertex="1" parent="ivQ7KvZgWlKlHBZSh0n3-9">
          <mxGeometry x="45" y="110" width="10" height="80" as="geometry" />
        </mxCell>
        <mxCell id="ivQ7KvZgWlKlHBZSh0n3-11" style="edgeStyle=orthogonalEdgeStyle;rounded=0;orthogonalLoop=1;jettySize=auto;html=1;entryX=0.026;entryY=0.14;entryDx=0;entryDy=0;entryPerimeter=0;" edge="1" parent="1" source="ivQ7KvZgWlKlHBZSh0n3-7" target="ivQ7KvZgWlKlHBZSh0n3-10">
          <mxGeometry relative="1" as="geometry">
            <Array as="points">
              <mxPoint x="620" y="230" />
              <mxPoint x="620" y="231" />
            </Array>
          </mxGeometry>
        </mxCell>
        <mxCell id="ivQ7KvZgWlKlHBZSh0n3-12" value="查询订单详情以及这种校验" style="edgeLabel;html=1;align=center;verticalAlign=middle;resizable=0;points=[];" vertex="1" connectable="0" parent="ivQ7KvZgWlKlHBZSh0n3-11">
          <mxGeometry x="-0.7071" y="-4" relative="1" as="geometry">
            <mxPoint x="63" y="-4" as="offset" />
          </mxGeometry>
        </mxCell>
        <mxCell id="ivQ7KvZgWlKlHBZSh0n3-13" style="edgeStyle=orthogonalEdgeStyle;rounded=0;orthogonalLoop=1;jettySize=auto;html=1;" edge="1" parent="1" source="ivQ7KvZgWlKlHBZSh0n3-10" target="ivQ7KvZgWlKlHBZSh0n3-7">
          <mxGeometry relative="1" as="geometry" />
        </mxCell>
        <mxCell id="ivQ7KvZgWlKlHBZSh0n3-17" value="返回详情" style="edgeLabel;html=1;align=center;verticalAlign=middle;resizable=0;points=[];" vertex="1" connectable="0" parent="ivQ7KvZgWlKlHBZSh0n3-13">
          <mxGeometry x="0.381" y="3" relative="1" as="geometry">
            <mxPoint as="offset" />
          </mxGeometry>
        </mxCell>
        <mxCell id="ivQ7KvZgWlKlHBZSh0n3-15" value="OrderServiceImpl" style="shape=umlLifeline;perimeter=lifelinePerimeter;whiteSpace=wrap;html=1;container=1;collapsible=0;recursiveResize=0;outlineConnect=0;" vertex="1" parent="1">
          <mxGeometry x="900" y="110" width="100" height="300" as="geometry" />
        </mxCell>
        <mxCell id="ivQ7KvZgWlKlHBZSh0n3-16" value="" style="html=1;points=[];perimeter=orthogonalPerimeter;" vertex="1" parent="ivQ7KvZgWlKlHBZSh0n3-15">
          <mxGeometry x="45" y="150" width="10" height="80" as="geometry" />
        </mxCell>
        <mxCell id="ivQ7KvZgWlKlHBZSh0n3-18" style="edgeStyle=orthogonalEdgeStyle;rounded=0;orthogonalLoop=1;jettySize=auto;html=1;entryX=-0.191;entryY=0.825;entryDx=0;entryDy=0;entryPerimeter=0;" edge="1" parent="1" source="ivQ7KvZgWlKlHBZSh0n3-5" target="ivQ7KvZgWlKlHBZSh0n3-16">
          <mxGeometry relative="1" as="geometry">
            <Array as="points">
              <mxPoint x="270" y="326" />
            </Array>
          </mxGeometry>
        </mxCell>
        <mxCell id="ivQ7KvZgWlKlHBZSh0n3-19" value="通过店铺类型路由到具体的退款实现（策略模式）" style="edgeLabel;html=1;align=center;verticalAlign=middle;resizable=0;points=[];" vertex="1" connectable="0" parent="ivQ7KvZgWlKlHBZSh0n3-18">
          <mxGeometry x="-0.7285" y="1" relative="1" as="geometry">
            <mxPoint x="115" as="offset" />
          </mxGeometry>
        </mxCell>
        <mxCell id="ivQ7KvZgWlKlHBZSh0n3-20" value="doExecute()" style="edgeLabel;html=1;align=center;verticalAlign=middle;resizable=0;points=[];" vertex="1" connectable="0" parent="ivQ7KvZgWlKlHBZSh0n3-18">
          <mxGeometry x="0.2659" relative="1" as="geometry">
            <mxPoint as="offset" />
          </mxGeometry>
        </mxCell>
      </root>
    </mxGraphModel>
  </diagram>
</mxfile>
